<svg xmlns="http://www.w3.org/2000/svg" width="89.9" height="51.9" viewBox="0 0 89.9 51.9"><g transform="translate(-140 -1366.1)"><path d="M66.2,34.4H15.5a6.7,6.7,0,0,0-6.7,6.7V64.5a6.7,6.7,0,0,0,6.7,6.7H27.8a4.577,4.577,0,0,0,3.9-2.1l3.7-9.7a5.842,5.842,0,0,1,5.5-3.8h0a5.842,5.842,0,0,1,5.5,3.8l3.7,9.7A4.706,4.706,0,0,0,54,71.2H66.3a6.6,6.6,0,0,0,6.5-6.7V41.1A6.553,6.553,0,0,0,66.2,34.4Z" transform="translate(135 1343)" fill="none"/><path d="M84.3,23.1v3.8A6.7,6.7,0,0,1,91,33.6V57a6.6,6.6,0,0,1-6.5,6.7H76.7V41.1A10.5,10.5,0,0,0,66.2,30.6H27.6a6.725,6.725,0,0,1,6-3.7H84.3V23.1H33.6a10.561,10.561,0,0,0-10.1,7.5h-8A10.5,10.5,0,0,0,5,41.1V64.5A10.5,10.5,0,0,0,15.5,75H27.8a8.468,8.468,0,0,0,7.3-4.1L39,60.7a2.051,2.051,0,0,1,1.9-1.3,1.972,1.972,0,0,1,1.9,1.3l3.8,9.9.2.3A8.692,8.692,0,0,0,54.1,75H66.4a10.318,10.318,0,0,0,9.9-7.5h8.2A10.478,10.478,0,0,0,94.9,57V33.6A10.65,10.65,0,0,0,84.3,23.1ZM72.9,64.5a6.6,6.6,0,0,1-6.5,6.7H54.1a4.577,4.577,0,0,1-3.9-2.1l-3.7-9.7A5.842,5.842,0,0,0,41,55.6h0a5.842,5.842,0,0,0-5.5,3.8l-3.7,9.7a4.706,4.706,0,0,1-3.9,2.1H15.5a6.7,6.7,0,0,1-6.7-6.7V41.1a6.7,6.7,0,0,1,6.7-6.7H66.2a6.7,6.7,0,0,1,6.7,6.7Z" transform="translate(135 1343)" fill="#80ba3b"/><path d="M25.3,44.3a7.8,7.8,0,0,0,0,15.6,7.685,7.685,0,0,0,7.8-7.8A7.81,7.81,0,0,0,25.3,44.3Zm0,11.7a4,4,0,1,1,4-4A3.949,3.949,0,0,1,25.3,56Z" transform="translate(135 1343)" fill="#80ba3b"/><path d="M57,44.3a7.8,7.8,0,0,0,0,15.6,7.685,7.685,0,0,0,7.8-7.8A7.81,7.81,0,0,0,57,44.3ZM57,56a4,4,0,1,1,4-4A3.949,3.949,0,0,1,57,56Z" transform="translate(135 1343)" fill="#80ba3b"/><path d="M83.4,38.8v13a1.967,1.967,0,0,0,1.9,1.9,1.9,1.9,0,0,0,1.9-1.9v-13a1.967,1.967,0,0,0-1.9-1.9A1.9,1.9,0,0,0,83.4,38.8Z" transform="translate(135 1343)" fill="#80ba3b"/></g></svg>